<?xml version="1.0" standalone="no"?>
<!DOCTYPE svg PUBLIC "-//W3C//DTD SVG 20010904//EN"
 "http://www.w3.org/TR/2001/REC-SVG-20010904/DTD/svg10.dtd">
<svg version="1.0" xmlns="http://www.w3.org/2000/svg"
 width="1199.000000pt" height="1196.000000pt" viewBox="0 0 1199.000000 1196.000000"
 preserveAspectRatio="xMidYMid meet">
<metadata>
Created by potrace 1.15, written by Peter Selinger 2001-2017
</metadata>
<g transform="translate(0.000000,1196.000000) scale(0.100000,-0.100000)"
fill="#000000" stroke="none">
<path d="M8090 10969 c-235 -30 -466 -104 -738 -235 -402 -193 -796 -471
-1227 -863 l-141 -128 -49 45 c-293 262 -457 396 -668 545 -393 279 -801 484
-1138 571 -203 52 -266 61 -454 60 -150 -1 -182 -4 -270 -28 -410 -108 -672
-423 -798 -961 -117 -499 -92 -1195 70 -1910 20 -88 38 -170 40 -182 5 -20 -4
-24 -98 -53 -1143 -343 -1944 -884 -2185 -1475 -117 -286 -93 -593 70 -878 79
-138 158 -239 301 -383 243 -245 516 -434 907 -630 265 -133 630 -278 894
-355 l110 -32 -28 -121 c-111 -475 -166 -963 -155 -1356 10 -329 44 -551 122
-787 77 -233 173 -401 310 -539 138 -140 291 -223 490 -266 127 -27 359 -26
515 1 581 101 1255 484 1913 1085 l117 107 128 -117 c893 -824 1795 -1224
2408 -1069 117 29 255 94 340 158 527 399 699 1414 448 2652 -19 94 -41 194
-48 223 -11 40 -12 54 -3 57 117 33 405 134 552 192 566 223 1031 506 1341
817 375 376 507 768 387 1150 -192 613 -978 1172 -2173 1547 -74 23 -136 43
-138 44 -1 1 12 62 28 136 117 514 170 1081 139 1494 -27 372 -89 634 -208
880 -144 296 -336 477 -601 564 -135 45 -345 61 -510 40z m292 -483 c128 -23
216 -77 295 -181 189 -249 280 -708 253 -1266 -10 -192 -28 -376 -56 -554 -22
-144 -94 -488 -104 -498 -4 -5 -95 9 -201 31 -251 52 -435 84 -694 121 -197
28 -550 71 -586 71 -10 0 -64 65 -130 158 -220 305 -518 675 -745 927 l-93
103 127 115 c559 507 1086 833 1527 942 176 44 286 52 407 31z m-4595 -7 c454
-50 1051 -372 1638 -883 170 -149 219 -198 209 -211 -5 -7 -67 -77 -138 -156
-231 -258 -488 -577 -712 -885 l-95 -131 -72 -7 c-176 -18 -501 -59 -712 -92
-193 -30 -616 -109 -691 -130 -20 -5 -24 2 -48 103 -63 267 -115 591 -137 849
-15 188 -7 624 15 764 54 344 171 597 323 702 55 37 138 67 218 78 88 11 96
11 202 -1z m2394 -1651 c111 -128 241 -288 406 -498 l51 -65 -654 0 c-360 0
-654 2 -654 3 0 17 366 462 544 661 l110 124 36 -40 c19 -22 92 -105 161 -185z
m269 -1048 c360 -14 553 -28 562 -43 4 -7 67 -102 139 -212 251 -385 538 -880
767 -1324 l110 -214 -99 -199 c-228 -456 -538 -992 -852 -1475 -78 -119 -44
-107 -352 -123 -489 -25 -1137 -23 -1652 7 l-113 6 -129 196 c-298 453 -519
833 -777 1338 -63 122 -114 228 -114 237 0 35 263 543 453 876 152 267 481
793 551 882 11 15 41 20 165 29 391 27 921 35 1341 19z m-2120 -95 c0 -3 -23
-42 -52 -88 -162 -258 -361 -602 -508 -876 l-93 -173 -38 91 c-138 332 -326
869 -306 876 51 20 502 102 792 145 226 34 205 31 205 25z m3585 -40 c227 -34
695 -122 715 -135 14 -9 -115 -389 -237 -695 -52 -132 -98 -246 -103 -254 -5
-9 -24 18 -60 85 -152 283 -395 702 -558 961 l-51 82 32 -5 c18 -2 136 -20
262 -39z m-5021 -377 c85 -276 266 -746 421 -1099 l85 -191 -81 -182 c-153
-344 -348 -853 -439 -1147 -17 -57 -33 -105 -35 -107 -7 -7 -466 153 -606 211
-810 339 -1350 802 -1395 1195 -18 167 80 367 281 567 276 277 717 531 1265
731 161 58 426 143 451 144 11 0 26 -33 53 -122z m6481 37 c802 -264 1427
-658 1653 -1042 103 -174 110 -340 22 -513 -208 -409 -860 -834 -1722 -1121
-97 -32 -180 -59 -186 -59 -5 0 -33 69 -62 153 -123 360 -288 770 -443 1105
l-74 159 70 154 c154 342 316 759 426 1091 l52 157 52 -16 c29 -8 124 -39 212
-68z m-1005 -2070 c114 -271 299 -779 288 -790 -2 -2 -82 -20 -178 -40 -290
-60 -834 -144 -846 -132 -3 3 37 74 89 159 165 268 370 626 513 895 26 51 52
89 56 85 4 -4 39 -84 78 -177z m-4666 128 c71 -150 361 -656 543 -948 51 -82
89 -151 84 -153 -36 -12 -988 141 -1009 163 -17 17 334 975 357 975 4 0 15
-17 25 -37z m5096 -1391 c0 -4 11 -57 25 -117 225 -1008 149 -1912 -189 -2251
-101 -101 -209 -139 -391 -137 -308 3 -695 157 -1130 448 -241 161 -457 334
-705 563 l-74 69 34 40 c334 382 575 687 837 1058 l71 101 138 13 c405 37
1039 137 1334 210 47 12 50 12 50 3z m-5460 -47 c191 -39 514 -92 730 -120
189 -24 571 -65 608 -65 11 0 33 -20 52 -47 224 -316 625 -815 860 -1067 l74
-80 -65 -58 c-556 -508 -1062 -826 -1535 -963 -212 -61 -449 -71 -582 -25
-241 84 -390 370 -453 865 -19 146 -16 555 5 750 22 200 65 460 113 678 30
137 40 166 52 162 9 -2 72 -16 141 -30z m3287 -260 c-130 -182 -598 -751 -627
-763 -8 -3 -108 106 -256 278 -98 114 -390 476 -404 500 -7 13 68 15 650 15
l658 0 -21 -30z"/>
<path d="M5781 6975 c-319 -72 -563 -260 -701 -540 -142 -289 -142 -601 0
-890 117 -237 329 -424 574 -504 134 -44 209 -54 370 -48 114 4 158 10 231 31
177 53 319 140 446 273 93 98 129 149 184 266 73 154 90 234 90 427 0 142 -3
177 -23 250 -46 167 -128 313 -246 438 -127 133 -276 225 -453 278 -76 23
-110 27 -248 30 -114 3 -178 -1 -224 -11z"/>
</g>
</svg>
